# xmcd
#
# Track frame offsets:
# 150
# 17632
# 33627
# 51250
# 64550
# 84297
# 99785
# 117422
# 134445
# 154060
# 171705
# 188480
# 207542
#
# Disc length: 3042 seconds
#
#
# Revision: 3
# Processed by: cddbd v1.5PL3 Copyright (c) Steve Scherf et al.
# Submitted via: FreeRIP 2.60 
#
DISCID=ae0be00d
DTITLE=Backstreet Boys - Millennium
DYEAR=1900
DGENRE=Pop
TTITLE0=Larger Than Life
TTITLE1=I Want It That Way
TTITLE2=Show Me The Meaning Of Being Lonely
TTITLE3=It's Gotta Be You
TTITLE4=I Need You Tonight
TTITLE5=Don't Want You Back
TTITLE6=Don't  Wanna Lose You Now
TTITLE7=The One
TTITLE8=Back To Your Heart
TTITLE9=Spanish Eyes
TTITLE10=No One Else Comes Close
TTITLE11=The Perfect Fan
TTITLE12=I'll Be There For You
EXTD=
EXTT0=
EXTT1=
EXTT2=
EXTT3=
EXTT4=
EXTT5=
EXTT6=
EXTT7=
EXTT8=
EXTT9=
EXTT10=
EXTT11=
EXTT12=
PLAYORDER=
